<svg xmlns="http://www.w3.org/2000/svg" width="300.000000pt" height="300.000000pt" viewBox="0 0 300.000000 300.000000" preserveAspectRatio="xMidYMid meet">
<g transform="translate(0.000000,300.000000) scale(0.100000,-0.100000)" fill="#070707" stroke="none">
<path class="node" id="node1" d="M310 1495 l0 -835 751 0 750 0 -45 55 c-24 30 -55 77 -68 105 l-23
49 -577 1 -578 0 0 625 0 625 895 0 895 0 0 -185 0 -185 29 0 c15 0 57 -9 91
-20 34 -11 69 -20 76 -20 12 0 14 54 14 310 l0 310 -1105 0 -1105 0 0 -835z" style="position: relative;"></path>
<path class="node" id="node2" d="M935 1940 c-66 -14 -107 -55 -126 -123 -22 -81 50 -186 129 -188 64
-2 86 2 119 22 36 22 73 91 73 134 0 38 -34 106 -64 127 -31 23 -93 36 -131
28z" style="position: relative;"></path>
<path class="node" id="node3" d="M1598 1723 c-18 -27 -44 -64 -58 -84 -14 -19 -56 -81 -95 -137 -38
-56 -74 -102 -80 -102 -5 0 -42 32 -81 71 l-71 70 -28 -33 c-42 -50 -128 -148
-248 -282 -59 -67 -113 -129 -118 -138 -9 -17 13 -18 396 -18 l405 0 0 51 c0
111 48 254 121 361 21 32 39 62 39 66 0 10 -138 222 -144 222 -3 0 -20 -21
-38 -47z" style="position: relative;"></path>
<path class="node" id="node4" d="M2185 1564 c-41 -6 -133 -43 -170 -67 -161 -107 -239 -309 -190 -497
70 -272 385 -416 633 -291 198 100 294 314 237 530 -47 181 -217 317 -407 326
-40 2 -86 1 -103 -1z m163 -276 l3 -97 97 -3 97 -3 0 -75 0 -75 -97 -3 -98 -3
0 -94 c0 -93 0 -95 -25 -101 -14 -3 -50 -3 -80 1 l-54 6 -3 92 -3 92 -95 5
-95 5 -3 78 -3 77 101 0 100 0 0 93 c0 52 3 97 7 101 4 4 39 5 78 4 l70 -3 3
-97z" style="position: relative;"></path>
</g>
<g transform="translate(0.000000,300.000000) scale(0.100000,-0.100000)" fill="#9F9F9F" stroke="none">

<path class="node" id="node6" d="M2197 1384 c-4 -4 -7 -49 -7 -101 l0 -93 -100 0 -101 0 3 -77 3 -78
95 -5 95 -5 3 -92 3 -92 54 -6 c30 -4 66 -4 80 -1 25 6 25 8 25 101 l0 94 98
3 97 3 0 75 0 75 -97 3 -97 3 -3 97 -3 97 -70 3 c-39 1 -74 0 -78 -4z" style="position: relative;"></path>
</g>
</svg>
