<?xml version="1.0" ?><!DOCTYPE svg  PUBLIC '-//W3C//DTD SVG 1.1//EN'  'http://www.w3.org/Graphics/SVG/1.1/DTD/svg11.dtd'><svg enable-background="new 0 0 512 512" height="512px" id="Credit_x5F_card" version="1.1" viewBox="0 0 512 512" width="512px" xml:space="preserve" xmlns="http://www.w3.org/2000/svg" xmlns:xlink="http://www.w3.org/1999/xlink"><g><path d="M127.633,215.98h215.568c29.315,0,53.166,23.851,53.166,53.166v14.873h38.061c22.735,0,41.166-18.432,41.166-41.167   v-69.608H127.633V215.98z"/><path d="M434.428,74.2H168.799c-22.735,0-41.166,18.431-41.166,41.166v17.479h347.961v-17.479   C475.594,92.631,457.163,74.2,434.428,74.2z"/><path d="M343.201,227.98H77.572c-22.735,0-41.166,18.431-41.166,41.166v127.487c0,22.735,18.431,41.166,41.166,41.166h265.629   c22.736,0,41.166-18.431,41.166-41.166V269.146C384.367,246.412,365.938,227.98,343.201,227.98z M131.542,329.846   c0,4.92-3.989,8.909-8.909,8.909H75.289c-4.92,0-8.908-3.989-8.908-8.909v-29.098c0-4.921,3.988-8.909,8.908-8.909h47.344   c4.92,0,8.909,3.988,8.909,8.909V329.846z M300.961,413.039c-10.796,0-19.548-8.752-19.548-19.549s8.752-19.549,19.548-19.549   c10.797,0,19.549,8.752,19.549,19.549S311.758,413.039,300.961,413.039z M345.271,413.039c-10.797,0-19.549-8.752-19.549-19.549   s8.752-19.549,19.549-19.549c10.796,0,19.548,8.752,19.548,19.549S356.067,413.039,345.271,413.039z"/></g></svg>