<?xml version="1.0" encoding="iso-8859-1"?>
<!-- Generator: Adobe Illustrator 19.0.0, SVG Export Plug-In . SVG Version: 6.00 Build 0)  -->
<svg version="1.1" id="Layer_1" xmlns="http://www.w3.org/2000/svg" xmlns:xlink="http://www.w3.org/1999/xlink" x="0px" y="0px"
	 viewBox="0 0 512.009 512.009" style="enable-background:new 0 0 512.009 512.009;" xml:space="preserve">
<g>
	<g>
		<g>
			<path d="M256.009,85.338c-0.002,0-0.005,0-0.007,0c-0.001,0-0.001,0-0.002,0c-0.001,0-0.002,0-0.003,0
				c-70.671,0.003-134.648,28.637-180.967,74.935c-0.016,0.016-0.034,0.029-0.05,0.045c-0.017,0.017-0.03,0.035-0.047,0.052
				C28.688,206.642,0.072,270.534,0.011,341.112C0.011,341.188,0,341.261,0,341.338c0,0.073,0.01,0.143,0.011,0.215
				c0.05,60.202,20.962,117.239,58.515,162.704c4.053,4.907,10.084,7.748,16.448,7.748h362.048c6.364,0,12.395-2.841,16.448-7.748
				c37.607-45.53,58.539-102.65,58.539-162.919C512.009,199.955,397.391,85.338,256.009,85.338z M426.68,469.338H85.316
				c-23.281-30.977-37.712-67.661-41.583-106.667h62.934c11.782,0,21.333-9.551,21.333-21.333c0-11.782-9.551-21.333-21.333-21.333
				H43.734c4.259-42.905,21.23-82.066,47.091-113.671l14.32,14.32c8.331,8.331,21.839,8.331,30.17,0
				c8.331-8.331,8.331-21.839,0-30.17l-14.321-14.321c31.605-25.864,70.765-42.837,113.672-47.098v62.941
				c0,11.782,9.551,21.333,21.333,21.333c11.782,0,21.333-9.551,21.333-21.333v-62.942c42.906,4.259,82.068,21.232,113.676,47.096
				l-14.325,14.325c-8.331,8.331-8.331,21.839,0,30.17c8.331,8.331,21.839,8.331,30.17,0l14.326-14.326
				c25.867,31.607,42.842,70.771,47.103,113.677h-62.95c-11.782,0-21.333,9.551-21.333,21.333c0,11.782,9.551,21.333,21.333,21.333
				h62.95C464.409,401.667,449.97,438.352,426.68,469.338z"/>
			<polygon points="259.661,384.004 319.991,263.322 199.33,323.674 			"/>
			<path d="M405.574,88.376c0.054,0.378,0.098,0.756,0.173,1.13c0.071,0.358,0.169,0.704,0.258,1.055
				c0.081,0.324,0.152,0.649,0.249,0.969c0.104,0.344,0.233,0.677,0.354,1.013c0.115,0.32,0.22,0.642,0.35,0.957
				c0.13,0.314,0.283,0.616,0.428,0.922c0.153,0.325,0.297,0.652,0.467,0.97c0.157,0.294,0.337,0.573,0.507,0.859
				c0.186,0.312,0.362,0.627,0.565,0.931c0.211,0.316,0.447,0.613,0.674,0.917c0.19,0.253,0.365,0.513,0.568,0.759
				c0.892,1.087,1.889,2.085,2.977,2.977c0.246,0.202,0.506,0.378,0.759,0.568c0.304,0.228,0.601,0.463,0.917,0.674
				c0.303,0.203,0.618,0.379,0.929,0.564c0.286,0.171,0.566,0.351,0.861,0.509c0.317,0.169,0.643,0.313,0.966,0.465
				c0.308,0.145,0.611,0.299,0.926,0.43c0.314,0.13,0.635,0.235,0.953,0.349c0.338,0.122,0.672,0.251,1.018,0.356
				c0.318,0.096,0.642,0.167,0.964,0.248c0.353,0.089,0.701,0.188,1.061,0.259c0.372,0.074,0.748,0.118,1.122,0.171
				c0.314,0.045,0.622,0.104,0.94,0.136c0.693,0.068,1.388,0.105,2.083,0.105c0.007,0,0.015,0.001,0.022,0.001h42.667
				c11.782,0,21.333-9.551,21.333-21.333c0-9.151-5.773-16.934-13.867-19.963l28.952-28.952c8.331-8.331,8.331-21.839,0-30.17
				c-8.331-8.331-21.839-8.331-30.17,0L446.63,35.204c-3.03-8.094-10.812-13.867-19.963-13.867
				c-11.782,0-21.333,9.551-21.333,21.333v42.667c0,0.703,0.037,1.405,0.106,2.105C405.471,87.758,405.53,88.064,405.574,88.376z"/>
		</g>
	</g>
</g>
<g>
</g>
<g>
</g>
<g>
</g>
<g>
</g>
<g>
</g>
<g>
</g>
<g>
</g>
<g>
</g>
<g>
</g>
<g>
</g>
<g>
</g>
<g>
</g>
<g>
</g>
<g>
</g>
<g>
</g>
</svg>
