<?xml version="1.0" encoding="iso-8859-1"?>
<!-- Generator: Adobe Illustrator 19.0.0, SVG Export Plug-In . SVG Version: 6.00 Build 0)  -->
<svg version="1.1" id="Layer_1" xmlns="http://www.w3.org/2000/svg" xmlns:xlink="http://www.w3.org/1999/xlink" x="0px" y="0px"
	 viewBox="0 0 512 512" style="enable-background:new 0 0 512 512;" xml:space="preserve">
<g>
	<g>
		<path d="M470.128,0H41.872C19.952,0,2.12,17.832,2.12,39.752v432.497C2.12,494.168,19.952,512,41.872,512h101.764
			c4.392,0,7.95-3.56,7.95-7.95s-3.559-7.95-7.95-7.95H41.872c-13.151,0-23.851-10.699-23.851-23.851V87.983h346.104
			c4.392,0,7.95-3.56,7.95-7.95s-3.559-7.95-7.95-7.95H18.021V39.752c0-13.152,10.7-23.851,23.851-23.851h428.257
			c13.151,0,23.851,10.699,23.851,23.851v32.331h-87.453c-4.392,0-7.95,3.56-7.95,7.95s3.559,7.95,7.95,7.95h87.453v384.265
			c0,13.152-10.7,23.851-23.851,23.851H186.037c-4.392,0-7.95,3.56-7.95,7.95s3.559,7.95,7.95,7.95h284.091
			c21.92,0,39.752-17.832,39.752-39.752V39.752C509.88,17.832,492.048,0,470.128,0z"/>
	</g>
</g>
<g>
	<g>
		<path d="M73.673,21.201c-12.567,0-22.791,10.224-22.791,22.791c0,12.567,10.224,22.791,22.791,22.791
			c12.567,0,22.791-10.224,22.791-22.791C96.464,31.425,86.24,21.201,73.673,21.201z M73.673,50.882c-3.799,0-6.89-3.091-6.89-6.89
			s3.091-6.89,6.89-6.89c3.799,0,6.89,3.091,6.89,6.89S77.472,50.882,73.673,50.882z"/>
	</g>
</g>
<g>
	<g>
		<path d="M139.395,21.201c-12.567,0-22.791,10.224-22.791,22.791c0,12.567,10.224,22.791,22.791,22.791
			s22.791-10.224,22.791-22.791C162.186,31.425,151.962,21.201,139.395,21.201z M139.395,50.882c-3.799,0-6.89-3.091-6.89-6.89
			s3.091-6.89,6.89-6.89s6.89,3.091,6.89,6.89S143.195,50.882,139.395,50.882z"/>
	</g>
</g>
<g>
	<g>
		<path d="M205.118,21.201c-12.567,0-22.791,10.224-22.791,22.791c0,12.567,10.224,22.791,22.791,22.791
			c12.567,0,22.791-10.224,22.791-22.791C227.909,31.425,217.685,21.201,205.118,21.201z M205.118,50.882
			c-3.799,0-6.89-3.091-6.89-6.89s3.091-6.89,6.89-6.89c3.799,0,6.89,3.091,6.89,6.89S208.917,50.882,205.118,50.882z"/>
	</g>
</g>
<g>
	<g>
		<path d="M393.805,46.642H287.801c-4.392,0-7.95,3.56-7.95,7.95c0,4.391,3.559,7.95,7.95,7.95h106.004c4.392,0,7.95-3.56,7.95-7.95
			C401.756,50.201,398.197,46.642,393.805,46.642z"/>
	</g>
</g>
<g>
	<g>
		<path d="M455.288,46.642h-27.561c-4.392,0-7.95,3.56-7.95,7.95c0,4.391,3.559,7.95,7.95,7.95h27.561c4.392,0,7.95-3.56,7.95-7.95
			C463.238,50.201,459.68,46.642,455.288,46.642z"/>
	</g>
</g>
<g>
	<g>
		<path d="M50.994,292.571l30.42-30.42c3.105-3.104,3.105-8.139,0.001-11.243c-3.106-3.105-8.139-3.105-11.244,0L34.13,286.95
			c-3.105,3.105-3.105,8.139,0,11.243l34.981,34.981c1.553,1.552,3.588,2.329,5.622,2.329c2.034,0,4.069-0.776,5.622-2.329
			c3.105-3.105,3.105-8.139,0-11.243L50.994,292.571z"/>
	</g>
</g>
<g>
	<g>
		<path d="M477.871,286.95l-36.041-36.041c-3.106-3.105-8.139-3.105-11.244,0s-3.105,8.139,0,11.243l30.42,30.42l-29.36,29.36
			c-3.105,3.104-3.105,8.139-0.001,11.243c1.553,1.552,3.588,2.329,5.622,2.329s4.069-0.776,5.622-2.329l34.981-34.981
			C480.976,295.088,480.976,290.054,477.871,286.95z"/>
	</g>
</g>
<g>
	<g>
		<path d="M410.205,241.258l-62.962-62.963c-1.588-1.588-3.814-2.43-6.029-2.318c-0.136-0.006-0.272-0.011-0.41-0.011H171.198
			c-0.138,0-0.275,0.003-0.41,0.011c-2.229-0.106-4.439,0.731-6.028,2.318l-62.963,62.964c-3.105,3.105-3.105,8.139,0,11.243
			l38.978,38.978c1.491,1.491,3.513,2.329,5.622,2.329c2.109,0,4.13-0.837,5.622-2.329l11.228-11.23v119.916
			c0,4.391,3.559,7.95,7.95,7.95h169.607c4.392,0,7.95-3.56,7.95-7.95V280.25l11.229,11.229c1.492,1.492,3.513,2.329,5.622,2.329
			c2.109,0,4.13-0.837,5.622-2.329l38.978-38.978C413.31,249.396,413.31,244.362,410.205,241.258z M301.573,191.867l-10.918,18.859
			l-16.874-18.859H301.573z M238.219,191.867l-16.874,18.859l-10.918-18.859H238.219z M248.05,392.215h-68.903V261.056
			c0-3.216-1.937-6.115-4.908-7.346s-6.39-0.549-8.665,1.724l-19.179,19.18l-27.734-27.734l54.425-54.425
			c0.389-0.095,0.775-0.222,1.153-0.377c0.158-0.066,0.314-0.136,0.465-0.211h17.35l21.024,36.315
			c1.276,2.205,3.532,3.665,6.067,3.925c0.272,0.028,0.544,0.042,0.815,0.042c2.248,0,4.408-0.954,5.924-2.649l22.167-24.775
			V392.215z M365.605,274.614l-19.179-19.18c-2.275-2.274-5.695-2.955-8.665-1.724c-2.971,1.231-4.908,4.13-4.908,7.345v131.16
			H263.95v-187.49l22.167,24.774c1.516,1.695,3.675,2.649,5.924,2.649c0.271,0,0.543-0.014,0.815-0.042
			c2.535-0.261,4.79-1.72,6.067-3.925l21.024-36.314h17.35c0.152,0.074,0.306,0.145,0.465,0.211
			c0.377,0.156,0.764,0.282,1.153,0.377l54.425,54.425L365.605,274.614z"/>
	</g>
</g>
<g>
	<g>
		<path d="M311.122,252.29h-27.561c-4.392,0-7.95,3.56-7.95,7.95s3.559,7.95,7.95,7.95h27.561c4.392,0,7.95-3.56,7.95-7.95
			S315.514,252.29,311.122,252.29z"/>
	</g>
</g>
<g>
	<g>
		<path d="M228.439,252.29h-27.561c-4.392,0-7.95,3.56-7.95,7.95s3.559,7.95,7.95,7.95h27.561c4.392,0,7.95-3.56,7.95-7.95
			S232.831,252.29,228.439,252.29z"/>
	</g>
</g>
<g>
</g>
<g>
</g>
<g>
</g>
<g>
</g>
<g>
</g>
<g>
</g>
<g>
</g>
<g>
</g>
<g>
</g>
<g>
</g>
<g>
</g>
<g>
</g>
<g>
</g>
<g>
</g>
<g>
</g>
</svg>
